<?xml version="1.0" standalone="no"?>
<!DOCTYPE svg PUBLIC "-//W3C//DTD SVG 20010904//EN"
 "http://www.w3.org/TR/2001/REC-SVG-20010904/DTD/svg10.dtd">
<svg version="1.0" xmlns="http://www.w3.org/2000/svg"
 width="1024.000000pt" height="1024.000000pt" viewBox="0 0 1024.000000 1024.000000"
 preserveAspectRatio="xMidYMid meet">

<g transform="translate(0.000000,1024.000000) scale(0.100000,-0.100000)"
fill="#000000" stroke="none">
<path d="M2800 9054 c-52 -42 -106 -83 -120 -92 -53 -36 -543 -404 -760 -571
-91 -70 -114 -93 -113 -110 3 -22 96 -213 258 -526 48 -93 153 -298 232 -455
136 -267 197 -386 378 -735 40 -77 128 -248 195 -380 68 -132 135 -262 150
-290 15 -27 78 -149 140 -270 62 -121 148 -285 190 -365 43 -80 102 -192 132
-250 129 -247 173 -328 203 -380 17 -30 51 -91 75 -135 92 -172 114 -212 150
-275 41 -72 78 -139 135 -245 20 -38 41 -74 45 -80 4 -5 34 -59 67 -120 33
-60 158 -281 278 -490 120 -209 231 -402 246 -430 61 -108 86 -121 354 -181
61 -13 148 -35 195 -48 205 -56 360 -96 374 -96 12 0 11 9 -8 53 -13 28 -33
84 -46 122 -31 98 -290 762 -337 865 -14 30 -72 174 -130 320 -58 146 -129
324 -158 395 -30 72 -76 186 -104 255 -27 69 -88 217 -134 330 -46 113 -110
268 -141 345 -59 145 -92 223 -247 585 -107 250 -168 393 -214 505 -18 44 -53
127 -78 185 -24 58 -57 137 -72 175 -15 39 -70 171 -122 295 -53 124 -102 241
-110 260 -8 19 -20 49 -28 65 -8 17 -31 75 -53 130 -22 55 -80 195 -129 310
-117 272 -339 820 -409 1005 -11 31 -34 86 -137 328 -17 39 -36 72 -42 71 -5
0 -53 -34 -105 -75z"/>
<path d="M8183 8343 c-55 -63 -100 -119 -359 -443 -84 -106 -177 -225 -402
-518 -48 -62 -116 -150 -152 -195 -36 -46 -94 -120 -130 -166 -36 -46 -103
-132 -150 -190 -47 -59 -130 -165 -185 -235 -55 -71 -118 -152 -141 -180 -38
-49 -82 -105 -397 -521 -75 -99 -158 -207 -183 -240 -25 -33 -58 -75 -73 -94
-14 -19 -49 -62 -76 -95 -114 -137 -102 -96 -114 -396 -6 -146 -15 -308 -21
-360 -5 -52 -12 -160 -15 -240 -3 -80 -10 -208 -15 -285 -11 -167 -16 -249
-30 -500 -6 -104 -15 -251 -20 -325 -5 -74 -12 -189 -15 -255 -4 -66 -10 -160
-15 -210 -5 -49 -13 -154 -16 -232 l-7 -143 24 0 c13 0 29 4 34 8 11 8 87 159
150 302 23 52 56 124 72 160 17 36 49 108 73 160 23 52 64 142 90 200 26 58
87 193 135 300 48 107 95 213 105 236 11 22 28 63 38 90 11 27 36 84 56 127
20 43 36 80 36 82 0 5 5 15 123 275 41 91 104 235 140 320 37 85 87 197 112
247 25 51 45 96 45 101 0 5 8 26 19 48 25 52 109 248 311 719 89 209 164 388
256 610 14 33 29 69 34 80 5 11 19 45 30 75 12 30 33 82 47 115 14 33 54 132
89 220 36 88 69 169 74 180 5 11 19 44 30 73 11 28 29 76 40 105 12 28 34 84
50 122 16 39 77 192 135 340 107 270 189 473 225 553 11 23 16 42 11 42 -5 0
-36 -30 -68 -67z"/>
<path d="M5076 2192 c-3 -5 -20 -8 -38 -7 -18 1 -36 -3 -40 -9 -5 -7 -8 -7 -8
3 0 10 -3 11 -13 2 -8 -6 -23 -9 -35 -6 -13 2 -22 -1 -22 -8 0 -8 -4 -7 -9 2
-7 12 -13 12 -24 3 -7 -7 -17 -9 -20 -5 -4 3 -7 2 -7 -4 0 -6 -11 -13 -25 -15
-15 -3 -22 -1 -18 5 4 6 0 8 -11 4 -10 -4 -20 -7 -23 -7 -3 0 1 -8 8 -17 13
-16 12 -17 -3 -5 -9 8 -22 11 -27 7 -16 -9 10 -34 31 -30 10 2 20 0 23 -5 3
-4 15 -6 27 -2 14 3 19 1 14 -6 -5 -9 0 -9 18 -2 24 9 30 6 28 -11 -1 -3 37
-5 83 -4 47 0 81 -3 78 -8 -3 -5 3 -5 13 0 11 5 30 8 44 6 14 -2 36 -3 50 -2
24 1 36 0 63 -2 30 -3 189 11 200 18 7 4 22 6 35 4 13 -1 29 2 35 8 7 5 22 8
32 7 21 -4 55 20 55 37 0 6 -3 7 -6 4 -4 -3 -15 -2 -25 3 -12 7 -19 6 -22 -3
-3 -7 -6 -5 -6 5 -1 9 -9 17 -18 16 -10 0 -34 3 -53 7 -19 4 -64 9 -100 11
-36 2 -74 5 -85 6 -11 1 -31 -2 -44 -6 -16 -6 -21 -5 -17 3 7 11 -91 8 -102
-3 -3 -3 -11 -1 -18 5 -7 5 -15 6 -18 1z m489 -61 c3 -5 1 -12 -5 -16 -5 -3
-10 1 -10 9 0 18 6 21 15 7z"/>
<path d="M8095 320 c-3 -5 -1 -10 4 -10 6 0 11 5 11 10 0 6 -2 10 -4 10 -3 0
-8 -4 -11 -10z"/>
<path d="M699 303 c-13 -16 -12 -17 4 -4 16 13 21 21 13 21 -2 0 -10 -8 -17
-17z"/>
<path d="M456 297 c3 -8 1 -18 -5 -22 -15 -8 -14 -28 1 -23 14 5 21 45 8 53
-5 3 -7 0 -4 -8z"/>
<path d="M3656 302 c-3 -5 1 -9 9 -9 8 0 12 4 9 9 -3 4 -7 8 -9 8 -2 0 -6 -4
-9 -8z"/>
<path d="M6140 298 c0 -4 6 -8 14 -8 8 0 17 4 20 8 2 4 -4 8 -15 8 -10 0 -19
-4 -19 -8z"/>
<path d="M6657 303 c-4 -3 -7 -11 -7 -17 0 -6 5 -5 12 2 6 6 9 14 7 17 -3 3
-9 2 -12 -2z"/>
<path d="M7607 297 c4 -6 0 -8 -10 -4 -12 5 -15 0 -12 -24 3 -19 0 -27 -7 -23
-5 4 -14 0 -19 -7 -7 -11 -9 -11 -9 3 0 9 5 20 10 23 12 8 13 25 1 25 -5 0
-12 -12 -16 -27 -4 -16 -10 -22 -12 -15 -3 6 -11 12 -18 12 -8 0 -21 7 -29 16
-24 23 -19 4 5 -22 l20 -21 -25 4 c-14 3 -25 8 -24 12 2 18 -4 22 -17 11 -12
-10 -15 -10 -15 1 0 11 -2 11 -10 -1 -14 -22 -12 -33 5 -26 8 3 15 2 15 -3 0
-5 -8 -11 -18 -13 -14 -4 -18 2 -20 25 -3 37 -9 44 -24 29 -8 -8 -8 -15 0 -24
8 -10 5 -13 -11 -14 -12 0 -31 -4 -42 -9 -11 -4 -17 -4 -12 0 4 5 -5 14 -20
20 -22 9 -31 9 -42 -3 -13 -13 -16 -12 -22 4 -3 11 -4 24 -1 29 3 6 1 6 -4 2
-5 -5 -9 -15 -9 -24 0 -8 -10 -22 -22 -30 -22 -15 -23 -14 -23 12 0 23 2 26
15 15 12 -10 15 -9 15 4 0 10 -4 15 -9 12 -5 -4 -12 0 -14 6 -3 7 -8 -2 -12
-19 -4 -18 -12 -33 -17 -33 -5 0 -6 -5 -2 -12 4 -7 3 -8 -5 -4 -6 4 -9 12 -6
17 4 5 -1 9 -10 9 -10 0 -13 -5 -9 -12 4 -7 3 -8 -5 -4 -9 6 -9 11 -1 21 9 10
9 19 0 32 -9 14 -10 14 -7 2 8 -25 -12 -38 -48 -32 -27 4 -34 2 -40 -16 -6
-21 -6 -21 -28 -1 -14 14 -23 16 -28 9 -4 -6 -12 -8 -18 -5 -6 4 -11 2 -11 -3
0 -6 -7 -11 -16 -11 -9 0 -12 -5 -8 -12 4 -6 3 -8 -4 -4 -8 4 -7 16 3 40 14
32 13 34 -5 29 -17 -5 -18 -8 -8 -21 10 -12 10 -14 1 -8 -8 4 -13 2 -13 -5 0
-7 -10 -1 -22 12 -13 15 -19 18 -15 7 9 -25 -3 -29 -31 -10 -15 9 -23 12 -19
6 9 -16 -18 -25 -31 -12 -6 6 -8 17 -5 24 3 9 -2 14 -13 13 -11 0 -14 -3 -8
-5 14 -6 6 -44 -8 -44 -5 0 -6 5 -3 10 3 6 1 10 -4 10 -10 0 -16 -21 -12 -42
0 -5 -3 -8 -9 -8 -5 0 -7 14 -5 31 3 23 0 29 -10 25 -8 -3 -17 -1 -20 4 -4 6
-12 10 -18 9 -8 0 -8 -2 1 -6 10 -4 10 -8 0 -21 -11 -13 -10 -15 4 -10 16 7
35 -18 23 -30 -3 -3 -5 -1 -5 5 0 6 -9 13 -21 16 -12 3 -18 10 -15 15 3 5 0
15 -8 21 -10 8 -15 5 -24 -13 -8 -18 -16 -23 -31 -19 -11 3 -19 10 -18 15 1 6
-4 13 -12 16 -10 3 -12 0 -8 -12 4 -9 2 -16 -3 -16 -6 0 -10 6 -10 14 0 8 -14
15 -36 18 -31 4 -34 2 -19 -8 16 -12 16 -14 0 -36 l-17 -23 7 24 c8 25 0 26
-46 7 -10 -5 -16 -2 -16 8 0 8 7 12 16 9 11 -3 10 0 -4 12 -17 14 -18 17 -5
25 12 8 9 10 -12 10 -15 0 -29 4 -33 10 -7 11 -35 2 -35 -12 0 -6 6 -5 15 2
16 13 18 11 28 -37 3 -15 1 -20 -8 -16 -8 2 -12 13 -10 24 2 11 0 17 -5 14 -5
-3 -7 -18 -4 -33 4 -26 3 -26 -11 -8 -8 11 -15 26 -15 34 0 7 -5 10 -10 7 -6
-4 -25 -11 -43 -15 -27 -8 -29 -7 -15 4 15 11 13 13 -15 13 -18 1 -43 3 -57 4
-15 3 -25 -1 -26 -8 -3 -26 -4 -28 -13 -15 -7 11 -11 11 -24 -2 -8 -9 -22 -16
-30 -16 -25 0 -47 -11 -41 -21 3 -5 1 -9 -4 -9 -17 0 -22 13 -9 28 10 13 9 14
-10 3 -19 -10 -22 -9 -17 4 4 8 12 15 20 15 8 0 14 5 14 11 0 5 -4 8 -9 5 -5
-4 -12 0 -14 6 -4 10 -6 10 -6 1 -1 -7 -8 -13 -17 -13 -14 0 -15 2 -3 18 13
15 12 16 -3 3 -10 -7 -18 -10 -18 -6 0 5 -9 0 -20 -10 -12 -10 -18 -25 -16
-32 4 -11 1 -11 -14 -3 -18 10 -24 22 -21 42 1 9 -32 2 -59 -12 -16 -8 -20
-18 -16 -33 l5 -22 -17 21 c-9 11 -25 31 -35 45 -10 13 -15 18 -11 10 5 -11 2
-13 -14 -9 -13 4 -22 1 -22 -5 0 -7 -5 -5 -10 3 -8 13 -10 13 -10 -2 0 -9 -4
-20 -10 -23 -5 -3 -7 0 -5 7 4 9 -2 14 -15 15 -11 1 -19 -1 -19 -5 2 -15 -14
-52 -23 -52 -5 0 -19 6 -31 14 -28 18 -92 32 -83 18 3 -5 -2 -16 -12 -23 -15
-12 -16 -12 -4 2 10 13 10 18 -1 28 -17 13 -28 5 -20 -16 5 -12 1 -14 -18 -8
-13 4 -28 11 -33 15 -5 5 -19 5 -32 0 -19 -8 -22 -6 -19 11 3 12 0 17 -7 13
-7 -5 -9 -2 -5 9 4 11 2 14 -9 10 -8 -3 -13 -12 -10 -19 16 -38 17 -49 4 -29
-7 11 -19 20 -27 20 -8 0 -16 6 -19 14 -3 8 0 11 7 7 7 -5 9 -1 4 10 -5 14 -7
14 -14 2 -12 -21 0 -58 17 -51 8 3 14 0 14 -7 0 -6 -4 -9 -9 -5 -5 3 -12 1
-16 -5 -9 -14 -23 -13 -22 3 1 36 -4 45 -23 40 -15 -4 -17 -9 -10 -23 10 -19
-4 -39 -17 -26 -4 3 -1 6 5 6 6 0 9 7 6 15 -4 8 -11 12 -17 8 -5 -3 -7 -1 -4
4 8 13 -19 37 -32 29 -6 -4 -7 -14 -4 -23 6 -15 7 -14 14 3 7 17 8 17 8 -3 1
-13 1 -26 2 -30 0 -4 -5 -9 -13 -11 -11 -3 -11 -2 0 6 11 7 10 11 -5 17 -27
11 -53 13 -59 3 -3 -4 4 -8 16 -8 12 0 19 -4 15 -10 -3 -5 -13 -6 -22 -3 -11
4 -14 3 -9 -5 4 -7 2 -12 -4 -12 -6 0 -8 -4 -5 -10 9 -14 -4 -12 -18 2 -18 19
-20 50 -5 59 10 7 10 9 -2 9 -13 0 -13 1 0 10 12 7 11 9 -6 8 -18 -2 -20 -7
-16 -43 2 -22 9 -43 16 -47 7 -5 6 -8 -4 -8 -19 0 -43 37 -30 45 15 9 2 25
-15 18 -20 -7 -19 6 1 28 16 17 15 18 -9 6 -15 -7 -24 -18 -22 -29 2 -11 -1
-15 -10 -12 -8 3 -15 15 -17 27 -3 25 -34 35 -52 17 -8 -9 -4 -10 17 -5 23 6
27 4 28 -16 1 -13 1 -30 0 -36 -1 -7 3 -13 9 -13 6 0 8 5 4 12 -4 7 -3 8 5 4
14 -9 7 -22 -17 -28 -15 -4 -17 0 -14 22 4 30 -23 49 -42 30 -8 -8 -6 -9 7 -5
18 8 22 -2 8 -23 -6 -10 -15 -6 -35 18 -19 24 -26 27 -26 14 0 -9 -3 -14 -7
-11 -3 4 -12 -1 -19 -11 -12 -15 -12 -14 -7 8 6 23 5 24 -12 10 -10 -8 -16
-10 -12 -4 3 6 0 11 -8 11 -8 0 -12 -4 -10 -8 3 -4 -2 -9 -10 -13 -8 -3 -12
-12 -9 -19 3 -8 -1 -17 -8 -19 -9 -4 -14 4 -15 24 0 16 -3 31 -6 34 -9 9 -47
-20 -43 -32 4 -10 -7 -11 -32 -5 -1 1 2 10 7 20 8 14 7 22 -7 32 -15 13 -16
12 -4 -3 9 -11 10 -18 2 -23 -5 -3 -10 -1 -10 6 0 14 -34 -19 -43 -41 -4 -12
-6 -11 -6 3 -1 9 -5 17 -11 17 -5 0 -10 5 -10 11 0 5 5 7 10 4 6 -3 10 -1 10
4 0 14 -3 14 -34 0 -14 -7 -33 -8 -43 -4 -10 5 -31 10 -48 11 -24 2 -26 1 -10
-6 15 -6 16 -9 4 -9 -9 -1 -21 -11 -28 -24 -11 -20 -11 -20 -6 8 3 17 2 25 -2
19 -4 -6 -17 -14 -29 -18 -12 -3 -25 -16 -31 -28 -6 -15 -12 -18 -17 -10 -4 7
-2 12 3 12 6 0 11 9 11 20 0 15 7 20 25 20 19 0 23 4 18 17 -4 10 -2 14 5 9 6
-3 13 -2 17 4 4 6 11 8 16 5 5 -4 9 -1 9 4 0 14 -17 14 -25 1 -5 -8 -12 -7
-23 2 -9 7 -13 8 -9 2 4 -7 0 -17 -8 -24 -8 -7 -15 -9 -15 -4 0 5 -9 -4 -20
-21 -15 -23 -20 -25 -17 -10 1 11 6 26 11 33 13 21 -4 29 -19 8 -13 -17 -41
-14 -30 4 3 4 -4 6 -16 3 -19 -5 -18 -7 10 -21 30 -14 35 -37 6 -25 -9 3 -15
-1 -15 -10 0 -9 -4 -18 -8 -21 -10 -6 -9 24 2 44 4 8 -5 2 -19 -15 -15 -16
-24 -24 -20 -16 6 10 2 12 -16 6 -19 -5 -21 -4 -9 4 14 10 7 15 -13 12 -5 -1
-6 3 -2 9 5 8 11 7 21 -1 9 -7 14 -8 14 -1 0 16 -41 26 -50 13 -10 -17 -66
-19 -62 -3 1 7 -5 12 -15 10 -11 -2 -17 2 -15 10 1 8 -2 11 -6 8 -5 -3 -8 -18
-5 -33 3 -26 3 -26 -6 -5 -11 24 -19 27 -41 11 -12 -8 -9 -9 10 -4 23 5 23 5
6 -6 -16 -10 -21 -9 -31 4 -14 20 -26 12 -18 -11 4 -13 3 -14 -4 -4 -10 14
-57 12 -70 -3 -4 -4 -3 -5 3 -2 6 3 11 0 11 -8 0 -10 -4 -12 -12 -5 -7 5 -15
6 -19 2 -4 -4 -13 0 -19 9 -12 16 -46 33 -59 31 -5 -1 -8 3 -8 8 0 6 -4 10 -9
10 -5 0 -8 -8 -7 -17 2 -12 10 -17 26 -15 19 3 20 2 9 -11 -8 -8 -18 -14 -24
-14 -14 3 -33 29 -31 42 2 5 1 7 -1 2 -3 -4 -11 -7 -20 -7 -8 0 -22 -9 -31
-20 -13 -15 -21 -17 -32 -10 -13 9 -12 10 4 8 10 -2 21 3 23 9 7 19 -56 17
-63 -1 -10 -26 -34 -27 -46 -1 -12 27 -32 33 -44 13 -4 -6 -3 -8 4 -4 6 3 13
2 17 -3 3 -6 -5 -8 -20 -5 -21 4 -25 1 -25 -18 0 -19 2 -20 10 -8 9 13 10 13
10 0 0 -13 1 -13 10 0 6 9 10 10 10 3 0 -20 -21 -26 -46 -12 -18 9 -21 15 -12
21 8 6 4 7 -11 3 -17 -5 -22 -4 -16 5 6 9 4 11 -6 5 -21 -14 -46 -13 -45 1 1
7 -3 13 -9 13 -5 0 -9 -7 -9 -15 1 -8 -5 -14 -13 -14 -8 0 -11 5 -7 11 4 8 -3
9 -24 4 -23 -5 -33 -2 -44 12 -7 10 -20 19 -28 21 -10 1 -9 -2 4 -13 15 -11
17 -18 9 -26 -12 -12 -36 -3 -28 11 10 17 -13 19 -26 3 -8 -9 -9 -14 -2 -10
13 8 12 -18 -2 -30 -4 -4 -5 -2 -1 5 4 7 1 15 -8 18 -8 3 -13 14 -11 25 2 10
0 19 -6 19 -5 0 -10 -4 -10 -10 -1 -5 -3 -14 -4 -20 -1 -5 -3 -15 -4 -21 -1
-8 -6 -8 -16 1 -12 10 -15 10 -15 -1 0 -11 -2 -11 -9 1 -6 8 -7 18 -4 24 4 5
0 7 -9 3 -9 -3 -20 -1 -24 3 -5 5 -19 7 -32 3 -17 -4 -20 -9 -12 -18 8 -10 5
-13 -15 -11 -25 1 -31 7 -18 20 13 13 10 44 -4 39 -7 -3 -11 -9 -8 -13 8 -14
-21 -30 -45 -25 -13 3 -31 -1 -39 -8 -9 -7 -22 -12 -28 -11 -7 1 -17 2 -23 3
-5 0 -7 8 -4 16 4 10 0 15 -11 15 -12 0 -16 -6 -12 -19 2 -10 0 -25 -5 -32 -8
-11 -9 -10 -4 3 3 10 1 20 -4 23 -6 4 -10 -1 -10 -9 0 -9 -8 -16 -17 -15 -11
0 -13 3 -5 6 17 7 15 33 -3 33 -8 0 -14 -5 -12 -11 1 -6 -6 -13 -15 -14 -12
-2 -18 3 -18 16 0 11 -4 18 -10 14 -6 -4 -6 -15 1 -32 5 -14 7 -28 4 -31 -3
-3 -5 0 -5 7 0 7 -4 9 -10 6 -6 -4 -7 1 -3 10 3 10 0 21 -8 26 -11 7 -11 9 -1
9 7 0 10 5 7 11 -5 6 -12 4 -21 -8 -11 -15 -15 -16 -23 -4 -7 11 -11 9 -21 -9
-9 -16 -15 -19 -23 -11 -16 16 -23 14 -35 -14 -6 -14 -16 -25 -22 -25 -7 0 -4
7 5 16 9 9 13 19 10 23 -4 3 -14 -4 -24 -15 -15 -19 -19 -20 -36 -8 -10 8 -13
14 -7 14 7 0 12 4 12 9 0 5 -12 8 -27 6 -18 -2 -36 5 -51 18 -17 15 -23 17
-20 7 2 -8 -3 -15 -9 -14 -39 3 -44 5 -39 13 10 16 -26 5 -38 -11 -6 -8 -17
-13 -25 -10 -9 3 -11 0 -7 -9 4 -8 0 -5 -8 5 -9 11 -16 15 -16 8 0 -6 -10 -9
-21 -7 -21 4 -21 4 -4 -15 10 -11 15 -23 12 -27 -4 -3 -7 -2 -7 4 0 7 -14 8
-40 3 -27 -5 -43 -3 -50 5 -12 14 -3 25 22 25 20 0 22 14 7 45 -8 17 -8 15 -4
-7 5 -26 4 -27 -20 -18 -17 7 -24 7 -20 0 3 -6 2 -10 -4 -10 -5 0 -12 6 -14
12 -4 10 -6 10 -6 0 -1 -7 -6 -10 -13 -6 -7 4 -8 3 -4 -4 5 -8 -5 -11 -34 -9
-26 1 -39 6 -36 14 3 7 -3 11 -14 10 -10 -1 -17 -4 -14 -9 6 -10 -28 -26 -43
-21 -7 3 -13 0 -13 -7 0 -6 -5 -8 -11 -5 -6 5 -4 12 8 22 17 13 16 14 -9 8
-17 -3 -28 -1 -28 5 0 6 -8 10 -18 8 -11 -2 -26 3 -35 10 -12 10 -17 10 -23 1
-4 -7 -3 -9 3 -6 7 4 10 -3 9 -19 -1 -23 -2 -24 -16 -7 -8 10 -24 20 -35 21
-17 4 -17 1 5 -17 14 -11 22 -20 18 -21 -4 0 -17 8 -27 17 -22 18 -51 26 -51
13 0 -4 7 -10 15 -14 8 -3 15 -11 15 -18 0 -10 -2 -10 -9 0 -4 7 -14 14 -22
15 -8 2 -20 6 -26 10 -8 5 -13 4 -13 -2 0 -6 -6 -10 -12 -8 -7 1 -13 -5 -13
-13 0 -8 6 -14 13 -13 6 2 12 -2 12 -7 0 -6 -11 -10 -25 -10 -28 0 -28 0 -15
34 7 20 6 24 -5 19 -8 -3 -13 -9 -10 -13 3 -5 1 -11 -5 -15 -6 -4 -10 6 -11
22 0 25 -1 26 -9 8 -5 -11 -9 -14 -9 -7 -1 6 -6 12 -12 12 -5 0 -7 -5 -3 -12
4 -7 3 -8 -4 -4 -15 9 -3 36 17 36 14 0 14 2 1 10 -9 5 -19 5 -27 -1 -8 -7
-18 -7 -33 1 -11 6 -25 8 -30 5 -15 -9 -1 -27 16 -21 8 3 14 1 14 -5 0 -6 6
-7 13 -3 6 4 5 0 -3 -9 -8 -9 -26 -18 -40 -20 -14 -3 -25 -11 -24 -18 1 -9
-10 -14 -32 -14 -17 0 -30 4 -27 9 4 5 -1 14 -10 21 -11 7 -13 16 -6 26 5 8 9
10 9 4 0 -5 7 -18 14 -28 16 -21 42 -14 58 17 10 19 10 20 -7 6 -17 -14 -17
-13 -10 9 6 21 5 22 -8 10 -8 -8 -12 -20 -10 -26 8 -21 -5 -15 -18 8 -8 15 -8
19 0 15 6 -4 11 -3 11 3 0 15 -23 26 -28 13 -2 -7 -8 -12 -14 -12 -6 0 -7 8
-4 17 5 16 5 16 -7 2 -6 -9 -23 -20 -37 -24 -22 -7 -23 -6 -12 8 12 14 11 15
-12 4 -14 -7 -26 -15 -26 -19 0 -11 -34 4 -46 20 -9 13 -12 12 -17 -2 -4 -10
-12 -14 -18 -11 -5 4 -20 -1 -31 -12 l-21 -18 17 26 c16 26 16 26 -10 21 -14
-2 -22 -7 -16 -11 5 -4 4 -18 -4 -36 -7 -16 -13 -24 -14 -17 0 7 -4 11 -9 8
-5 -3 -11 1 -15 9 -6 16 9 29 24 20 6 -3 7 1 4 10 -5 13 -9 13 -21 3 -8 -7
-27 -14 -41 -16 -21 -3 -23 -1 -13 12 9 11 9 16 0 22 -8 4 -9 3 -5 -4 10 -16
-7 -15 -23 1 -11 9 -13 9 -7 0 4 -7 2 -13 -4 -13 -6 0 -8 -5 -5 -10 4 -6 11
-8 16 -5 5 3 6 -1 3 -9 -5 -13 -9 -12 -26 7 -11 12 -17 17 -14 10 4 -6 2 -14
-4 -18 -5 -3 -10 -1 -10 6 0 8 -5 8 -18 -2 -14 -11 -15 -11 -5 1 18 19 16 41
-2 34 -8 -3 -14 -9 -13 -12 0 -4 0 -14 -1 -22 -1 -12 -4 -12 -12 3 -13 22 -29
22 -24 -1 2 -11 -6 -24 -18 -32 -20 -12 -21 -12 -9 3 11 12 11 17 0 23 -7 5
-21 7 -32 5 -13 -2 -16 1 -10 11 6 10 5 11 -7 1 -12 -9 -18 -10 -27 -1 -8 8
-15 8 -27 -2 -9 -7 -27 -10 -46 -6 -22 4 -28 3 -23 -7 5 -7 1 -6 -10 2 -15 13
-19 13 -27 0 -6 -9 -9 -10 -9 -2 0 7 -7 10 -15 6 -9 -3 -22 2 -31 13 -12 17
-13 17 -8 1 4 -10 1 -17 -6 -17 -6 0 -9 -4 -6 -9 3 -5 -9 -8 -28 -7 -19 1 -32
-2 -30 -6 2 -3 0 -9 -6 -13 -5 -3 -10 1 -10 10 0 10 -5 14 -12 10 -7 -4 -5 0
4 8 21 17 24 44 4 44 -8 0 -12 -6 -9 -13 2 -6 0 -15 -6 -19 -6 -3 -11 1 -11 9
0 9 -5 16 -11 16 -5 0 -8 -4 -5 -9 3 -5 -1 -12 -10 -15 -8 -3 -13 -2 -10 3 3
5 -2 15 -12 22 -15 12 -15 12 -5 -1 9 -12 7 -20 -7 -38 -24 -29 -27 -28 -22 8
3 19 0 30 -8 30 -7 0 -10 -7 -6 -17 4 -11 -1 -9 -13 6 l-19 24 -11 -22 c-7
-12 -16 -19 -20 -17 -4 3 -17 -3 -27 -12 -23 -21 -54 -17 -55 6 0 11 -2 12 -6
4 -6 -14 -33 -16 -33 -2 0 6 5 10 12 10 6 0 9 2 6 5 -10 10 -39 -8 -34 -21 5
-14 -19 -9 -42 9 -8 7 -18 5 -31 -7 -16 -15 -19 -15 -31 -1 -11 13 -10 15 2
10 8 -3 21 2 29 12 13 16 12 17 -3 5 -20 -16 -42 -6 -34 15 3 8 1 11 -4 8 -6
-3 -10 -15 -10 -26 0 -11 -7 -19 -17 -19 -14 -1 -12 -4 7 -15 30 -17 10 -19
-39 -5 -24 7 -39 6 -48 -1 -15 -13 -29 12 -18 33 4 7 -1 4 -9 -6 -12 -15 -16
-16 -16 -5 0 11 -2 11 -9 1 -7 -11 -9 -11 -14 2 -3 8 -1 17 6 19 7 3 2 4 -10
4 -21 -1 -21 -1 -2 -28 15 -22 16 -28 5 -32 -8 -3 -22 1 -33 9 -17 13 -17 14
2 8 18 -5 18 -5 2 6 -9 6 -14 16 -11 22 4 6 3 8 -4 5 -6 -4 -11 -58 -11 -137
l-2 -130 5121 0 5120 0 -1 133 c-1 81 -4 122 -9 107 -4 -14 -8 -19 -9 -12 -1
9 -6 10 -19 3 -12 -6 -23 -6 -33 1 -11 8 -11 9 3 4 10 -3 19 -2 22 2 3 4 -5 9
-17 9 -12 1 -33 5 -45 8 -15 4 -21 2 -17 -5 3 -5 11 -10 16 -10 5 0 19 -8 30
-19 20 -18 20 -18 -5 -14 -14 3 -23 10 -19 15 3 6 0 8 -8 6 -8 -3 -21 8 -32
26 -10 17 -16 24 -13 14 6 -22 -3 -29 -25 -18 -28 15 -50 2 -43 -26 4 -15 2
-24 -5 -24 -21 0 -26 -2 -41 -13 -13 -10 -13 -10 -1 6 7 9 20 17 27 17 8 0 14
5 14 11 0 5 -4 8 -9 4 -6 -3 -14 2 -19 11 -10 19 -36 9 -29 -10 3 -7 -1 -13
-8 -13 -8 0 -13 5 -12 10 1 5 -8 13 -20 17 -18 8 -21 6 -16 -8 6 -14 4 -15 -9
-5 -8 7 -18 10 -22 6 -3 -4 -17 -8 -29 -10 -21 -3 -21 -3 3 14 14 10 28 18 32
18 3 0 10 4 15 9 5 6 2 6 -6 1 -11 -6 -13 -4 -8 11 7 18 6 18 -7 2 -7 -10 -21
-18 -30 -18 -10 0 -14 -4 -11 -10 3 -5 -1 -10 -10 -10 -9 0 -14 4 -11 9 10 15
-22 20 -34 5 -11 -13 -7 -18 12 -16 3 1 9 -6 13 -16 3 -9 3 -13 -1 -9 -4 4
-13 2 -19 -3 -9 -7 -17 -5 -26 7 -13 16 -12 17 4 4 10 -8 17 -9 17 -3 0 6 -8
15 -17 21 -10 5 -18 13 -18 18 0 11 -33 14 -40 3 -3 -5 0 -7 8 -4 8 3 18 0 23
-7 5 -8 3 -10 -5 -5 -8 6 -11 2 -9 -10 2 -11 -4 -20 -14 -22 -11 -2 -18 3 -18
12 0 18 -15 21 -25 6 -3 -5 -12 -10 -18 -10 -9 0 -9 2 0 8 19 12 -58 12 -80 1
-10 -6 -15 -14 -12 -18 3 -5 -2 -12 -11 -15 -11 -4 -14 -1 -10 12 4 13 0 18
-16 19 -11 1 -24 7 -28 13 -4 6 -14 8 -23 4 -21 -8 -22 4 -2 26 13 14 13 17 1
17 -8 0 -14 -5 -13 -11 1 -6 -4 -10 -11 -8 -8 1 -11 -2 -6 -9 3 -6 0 -15 -7
-20 -8 -4 -14 -14 -14 -20 0 -7 -7 -14 -15 -16 -13 -4 -13 -3 0 6 10 7 11 11
3 11 -7 0 -13 5 -13 11 0 5 5 7 11 4 6 -4 5 3 -3 14 -10 16 -19 20 -37 16 -22
-6 -23 -4 -11 10 10 12 11 18 1 28 -10 9 -11 8 -6 -5 5 -12 1 -20 -9 -24 -15
-6 -15 -9 -3 -23 25 -28 27 -39 11 -45 -10 -4 -13 -2 -8 6 5 7 0 9 -14 6 -24
-7 -28 2 -12 18 8 8 6 15 -4 23 -16 14 -40 6 -31 -10 4 -5 1 -9 -4 -9 -6 0
-11 7 -11 16 0 8 -4 13 -9 10 -5 -3 -14 1 -21 9 -6 7 -18 11 -25 8 -16 -5 -16
-24 0 -35 6 -4 -5 -8 -23 -8 -18 0 -31 4 -28 9 3 5 -1 12 -10 15 -8 3 -12 11
-8 17 4 8 3 9 -4 5 -9 -5 -9 -13 -1 -27 6 -12 8 -23 6 -26 -8 -7 -47 7 -47 17
0 5 8 7 18 4 14 -5 15 -4 2 5 -11 8 -18 7 -27 -5 -6 -9 -17 -13 -23 -9 -9 6
-9 9 0 15 8 5 6 9 -6 14 -10 4 -15 4 -12 1 4 -4 2 -19 -3 -33 -9 -23 -8 -24 8
-11 14 12 16 12 8 0 -6 -11 -4 -13 9 -8 10 4 15 3 11 -3 -5 -8 -34 -8 -55 0
-3 2 -8 2 -12 1 -5 0 -8 6 -8 14 0 21 -17 19 -30 -5 -9 -17 -8 -20 12 -20 17
0 19 -3 9 -9 -16 -10 -71 15 -71 32 0 8 3 8 9 -1 6 -10 10 -10 21 3 13 16 13
16 -42 19 -9 1 -20 4 -24 9 -4 4 -14 7 -23 6 -12 0 -11 -3 4 -9 11 -5 14 -9 7
-9 -7 -1 -20 -7 -28 -15 -15 -15 -19 -30 -6 -23 4 3 13 -1 20 -9 22 -23 -5
-16 -35 10 -20 18 -23 24 -11 23 9 -1 16 2 15 8 -1 5 -5 9 -9 8 -5 -2 -8 1 -8
6 0 5 9 11 20 14 11 3 20 11 20 19 0 11 -2 10 -9 -1 -5 -7 -14 -10 -20 -7 -6
4 -16 -4 -22 -21 -7 -17 -13 -23 -16 -15 -4 10 -9 8 -19 -5 -12 -17 -13 -17
-9 3 3 19 1 20 -20 10 -13 -6 -21 -14 -19 -18 3 -4 -2 -5 -10 -2 -20 8 -20 9
0 28 8 9 11 16 5 16 -6 0 -18 -11 -26 -24 -10 -15 -25 -23 -42 -23 -21 0 -23
1 -9 9 9 5 20 7 25 4 5 -3 12 1 15 10 9 24 7 29 -6 16 -15 -15 -31 -16 -22 0
4 7 3 8 -5 4 -6 -4 -8 -12 -5 -18 4 -7 -4 -8 -26 -3 -25 6 -31 4 -27 -6 2 -8
11 -13 18 -11 11 3 12 1 1 -10 -11 -11 -14 -10 -21 1 -7 10 -10 11 -16 1 -6
-10 -12 -8 -23 6 -14 18 -14 18 -9 -3 4 -19 2 -21 -18 -13 -13 5 -26 6 -31 2
-4 -4 -4 -2 0 5 4 7 14 9 24 6 9 -3 14 -3 10 1 -4 4 -21 9 -38 10 -24 2 -29
-1 -25 -13 3 -9 3 -12 -1 -9 -4 4 -16 3 -28 -3 -18 -9 -19 -8 -6 3 8 7 16 22
18 33 2 18 0 17 -19 -5 l-22 -25 8 24 c6 20 4 23 -9 18 -9 -4 -16 -1 -16 4 0
6 9 9 20 6 11 -3 23 -1 26 4 3 5 -13 9 -35 9 -42 0 -84 -25 -75 -44 3 -6 0 -4
-8 4 -15 17 -36 19 -57 6 -10 -6 -12 -5 -7 2 4 7 2 12 -5 12 -8 0 -5 5 5 13
16 12 15 13 -8 13 -15 0 -25 -5 -23 -11 3 -7 -10 -9 -37 -6 -22 3 -33 6 -23 9
17 4 24 22 8 22 -12 0 -35 -29 -28 -36 3 -4 0 -13 -8 -20 -18 -19 -31 -18 -15
1 6 8 10 22 8 31 -3 16 -4 16 -20 1 -16 -17 -14 -57 3 -57 5 0 9 -8 9 -17 -1
-17 -1 -17 -11 0 -6 9 -14 15 -20 12 -5 -3 -6 1 -2 10 3 10 0 21 -8 26 -10 6
-10 9 -1 9 6 0 12 5 12 11 0 5 -4 7 -10 4 -5 -3 -10 0 -10 7 0 11 -2 11 -9 0
-9 -15 -34 -12 -41 5 -4 9 -14 5 -32 -12 -29 -27 -54 -32 -60 -13 -3 9 -6 9
-12 0 -4 -7 -3 -12 3 -12 6 0 7 -7 4 -17 -5 -12 -3 -14 7 -8 9 5 11 4 6 -3 -5
-8 -13 -9 -25 -2 -10 5 -21 6 -25 3 -3 -3 -6 -1 -6 5 0 7 -7 12 -16 12 -9 0
-12 -5 -8 -12 6 -10 4 -10 -8 0 -10 8 -26 10 -44 6 -23 -6 -26 -4 -21 9 5 14
3 15 -13 5 -10 -7 -21 -21 -24 -32 -3 -11 -8 -17 -12 -13 -4 4 -13 2 -20 -4
-9 -7 -12 -6 -10 8 2 10 10 17 19 15 11 -2 14 3 10 18 -4 16 -2 19 11 14 9 -3
16 -1 16 6 0 6 -4 8 -10 5 -5 -3 -10 -1 -10 5 0 7 -5 6 -14 -2 -8 -7 -12 -16
-10 -20 3 -4 -4 -13 -15 -19 -10 -7 -17 -20 -14 -28 3 -12 1 -11 -7 2 -9 13
-8 21 5 33 13 14 13 34 -1 34 -3 0 -3 -4 0 -9 9 -14 -18 -31 -42 -24 -24 6
-20 21 8 31 17 6 17 8 -6 19 -16 7 -22 8 -17 0z m3 -22 c-7 -9 -15 -13 -19
-10 -3 3 1 10 9 15 21 14 24 12 10 -5z m411 -10 c5 4 9 -1 9 -10 0 -11 -5 -15
-14 -12 -8 3 -17 -2 -21 -10 -5 -15 -7 -15 -21 -1 -13 13 -14 19 -3 36 11 17
14 18 27 6 7 -8 18 -12 23 -9z m1219 -29 c0 -6 -4 -5 -9 2 -4 8 -12 13 -17 12
-5 0 -11 7 -13 17 -3 17 -2 17 18 -1 11 -11 21 -24 21 -30z m-3365 13 c-4 -5
-1 -9 4 -9 6 0 11 -6 11 -14 0 -7 9 -16 20 -19 21 -5 28 -27 9 -27 -5 0 -7 5
-3 11 4 7 -3 10 -17 9 -45 -4 -56 0 -35 11 14 9 16 13 5 20 -8 4 -19 3 -28 -4
-10 -8 -9 -3 3 15 10 15 22 25 27 22 5 -3 7 -10 4 -15z m296 -2 c-10 -9 -11
-8 -5 6 3 10 9 15 12 12 3 -3 0 -11 -7 -18z m1998 -22 c0 -5 -4 -3 -9 5 -5 8
-9 22 -9 30 0 16 17 -16 18 -35z m-5661 2 c17 6 15 -4 -2 -10 -16 -6 -59 26
-49 36 3 4 13 -2 22 -12 9 -10 22 -16 29 -14z m3262 19 c0 -9 -7 -12 -20 -9
-11 3 -20 9 -20 14 0 5 9 9 20 9 11 0 20 -6 20 -14z m3604 5 c3 -5 0 -11 -7
-14 -8 -3 -14 1 -14 9 0 16 13 19 21 5z m-7914 -12 c0 -14 -29 -17 -40 -4 -8
10 -5 13 15 11 14 0 25 -4 25 -7z m1095 -22 c-5 -17 -4 -19 4 -7 9 13 12 13
23 1 8 -9 9 -12 1 -7 -6 3 -16 -2 -22 -11 -9 -17 -10 -17 -16 -1 -4 10 -12 15
-18 11 -6 -4 -7 -1 -1 8 5 8 9 17 10 22 1 4 2 10 3 13 0 3 6 2 11 -1 6 -4 8
-16 5 -28z m635 18 c11 -13 10 -14 -4 -9 -9 3 -16 10 -16 15 0 13 6 11 20 -6z
m1337 -5 c-1 -21 -10 -18 -13 5 -1 8 2 15 6 15 5 0 8 -9 7 -20z m1446 5 c-3
-9 -8 -14 -10 -11 -3 3 -2 9 2 15 9 16 15 13 8 -4z m244 -5 c-2 -11 -7 -23
-12 -27 -4 -5 -5 -2 -1 5 4 6 2 12 -4 12 -7 0 -6 5 2 15 17 19 18 19 15 -5z
m1843 16 c0 -2 -8 -10 -17 -17 -16 -13 -17 -12 -4 4 13 16 21 21 21 13z m163
-3 c3 -5 -6 -8 -19 -8 -13 0 -24 3 -24 8 0 4 9 7 19 7 11 0 22 -3 24 -7z m667
-13 c0 -4 -8 -7 -17 -5 -10 2 -20 4 -23 4 -3 1 2 5 10 10 15 10 30 6 30 -9z
m1164 12 c3 -5 -1 -9 -9 -9 -8 0 -15 4 -15 9 0 4 4 8 9 8 6 0 12 -4 15 -8z
m-9107 -8 c-3 -3 -12 -4 -19 -1 -8 3 -5 6 6 6 11 1 17 -2 13 -5z m290 0 c-3
-3 -12 -4 -19 -1 -8 3 -5 6 6 6 11 1 17 -2 13 -5z m278 -3 c3 -5 1 -12 -4 -15
-5 -3 -11 1 -15 9 -6 16 9 21 19 6z m1282 -17 c0 -18 0 -18 -21 5 -17 19 -17
19 1 15 11 -3 20 -12 20 -20z m243 16 c0 -5 9 -10 20 -10 14 0 20 -6 19 -22
-1 -17 -2 -19 -6 -5 -2 9 -13 17 -23 17 -10 0 -20 7 -24 15 -3 8 -1 15 4 15 6
0 10 -4 10 -10z m1630 1 c0 -5 -7 -12 -16 -15 -14 -5 -15 -4 -4 9 14 17 20 19
20 6z m743 -6 c-3 -9 -8 -14 -10 -11 -3 3 -2 9 2 15 9 16 15 13 8 -4z m894 0
c0 -8 -3 -13 -5 -10 -3 3 -11 0 -19 -6 -18 -16 -16 -4 3 15 19 20 21 20 21 1z
m200 -5 c-1 -11 -7 -20 -14 -20 -16 0 -17 12 -1 28 16 16 17 15 15 -8z m119 0
c0 -10 -2 -17 -5 -15 -2 3 -10 0 -17 -6 -10 -8 -11 -6 -1 15 14 31 23 33 23 6z
m644 0 c-24 -15 -37 -11 -16 5 11 8 22 12 25 9 3 -3 -1 -9 -9 -14z m355 10 c3
-5 2 -10 -4 -10 -5 0 -13 5 -16 10 -3 6 -2 10 4 10 5 0 13 -4 16 -10z m180
-10 c-21 -24 -32 -25 -32 -5 0 8 4 12 8 9 4 -2 10 0 14 6 3 5 11 10 17 10 6 0
3 -9 -7 -20z m-7329 -10 c0 -11 -1 -20 -3 -20 -1 0 -7 9 -13 20 -8 15 -8 20 3
20 7 0 13 -9 13 -20z m314 10 c0 -5 -2 -10 -4 -10 -3 0 -8 5 -11 10 -3 6 -1
10 4 10 6 0 11 -4 11 -10z m722 -18 c8 4 15 1 15 -6 0 -16 -38 -15 -55 1 -7 7
-10 18 -7 24 5 6 11 4 20 -7 6 -9 19 -15 27 -12z m737 11 c0 -11 -3 -13 -6 -6
-3 10 -8 9 -20 -3 -8 -8 -18 -12 -22 -9 -6 7 27 35 41 35 4 0 8 -8 7 -17z
m480 3 c11 -14 6 -15 -27 -7 -4 1 8 21 12 21 2 0 9 -6 15 -14z m1281 10 c0 -2
-7 -7 -16 -10 -8 -3 -12 -2 -9 4 6 10 25 14 25 6z m125 -17 c-4 -5 -12 -9 -18
-8 -9 0 -8 2 1 6 6 2 9 10 6 15 -4 7 -2 8 5 4 6 -4 9 -12 6 -17z m81 9 c4 4 2
-1 -5 -10 -7 -9 -10 -23 -6 -30 4 -7 -1 -4 -9 6 -20 25 -22 54 -3 37 8 -6 18
-7 23 -3z m674 -9 c0 -5 -8 -9 -17 -8 -11 0 -13 3 -5 6 6 2 9 10 6 15 -4 7 -2
8 4 4 7 -4 12 -11 12 -17z m694 11 c28 -10 36 -37 11 -37 -8 0 -15 4 -15 8 0
4 -7 15 -16 23 -18 19 -15 20 20 6z m1169 -25 c-12 -15 -20 -19 -25 -12 -8 12
22 47 35 40 4 -2 -1 -15 -10 -28z m61 20 c-4 -8 -1 -15 6 -15 10 0 10 -3 1
-14 -8 -10 -9 -16 -1 -19 6 -3 5 -4 -2 -3 -7 2 -12 11 -10 21 2 12 -1 16 -11
12 -7 -3 -14 1 -14 9 0 7 4 11 8 8 4 -2 10 0 14 6 9 15 15 12 9 -5z m264 6
c10 -6 10 -10 -3 -21 -13 -11 -15 -10 -9 3 4 11 -2 17 -18 20 -19 4 -19 4 -3
5 11 1 26 -2 33 -7z m2022 -2 c0 -5 5 -7 12 -3 7 4 8 3 4 -4 -10 -16 -23 -15
-30 3 -3 8 -1 15 4 15 6 0 10 -5 10 -11z m107 -6 c0 -10 -4 -10 -16 -1 -9 7
-18 13 -20 15 -2 1 5 1 16 0 11 0 20 -7 20 -14z m413 -3 c8 -15 8 -18 -3 -14
-8 3 -14 11 -14 19 0 20 4 19 17 -5z m470 -24 c-8 -8 -9 -6 -4 8 6 16 4 18 -9
13 -9 -3 -17 -2 -17 3 0 5 8 10 18 12 20 4 29 -19 12 -36z m-9179 21 c-1 -12
-15 -9 -19 4 -3 6 1 10 8 8 6 -3 11 -8 11 -12z m269 9 c0 -3 -4 -8 -10 -11 -5
-3 -10 -1 -10 4 0 6 5 11 10 11 6 0 10 -2 10 -4z m684 -7 c3 -3 -4 -5 -14 -6
-11 -1 -20 2 -20 7 0 8 25 8 34 -1z m546 -4 c7 -9 8 -15 2 -15 -5 0 -12 7 -16
15 -3 8 -4 15 -2 15 2 0 9 -7 16 -15z m565 -3 c-3 -3 -11 0 -18 7 -9 10 -8 11
6 5 10 -3 15 -9 12 -12z m315 14 c0 -2 -8 -10 -17 -17 -16 -13 -17 -12 -4 4
13 16 21 21 21 13z m2420 -11 c0 -2 -6 -5 -13 -8 -8 -3 -14 1 -14 8 0 7 6 11
14 8 7 -3 13 -6 13 -8z m410 -5 c0 -5 -7 -7 -15 -4 -8 4 -12 10 -9 15 6 11 24
2 24 -11z m1720 16 c0 -2 -7 -7 -16 -10 -8 -3 -12 -2 -9 4 6 10 25 14 25 6z
m25 -5 c3 -5 2 -12 -3 -15 -5 -3 -9 1 -9 9 0 17 3 19 12 6z m62 -13 c-3 -8 -6
-5 -6 6 -1 11 2 17 5 13 3 -3 4 -12 1 -19z m1540 7 c0 -8 -4 -12 -9 -9 -4 3
-8 9 -8 15 0 5 4 9 8 9 5 0 9 -7 9 -15z m-8400 -10 c0 -8 -4 -12 -9 -9 -5 3
-6 10 -3 15 9 13 12 11 12 -6z m2488 -3 c-3 -3 -11 0 -18 7 -9 10 -8 11 6 5
10 -3 15 -9 12 -12z m1293 -7 c-3 -3 -9 2 -12 12 -6 14 -5 15 5 6 7 -7 10 -15
7 -18z m212 -19 c0 -6 -7 -1 -15 10 -9 12 -14 14 -15 6 0 -7 -4 -10 -10 -7 -6
4 -5 11 2 19 11 11 15 10 25 -3 7 -9 13 -20 13 -25z m116 29 c-3 -20 -16 -31
-16 -13 0 13 8 28 16 28 1 0 1 -7 0 -15z m212 -11 c1 -1 -5 -4 -16 -6 -12 -4
-18 1 -19 14 -2 17 0 18 15 7 9 -8 18 -14 20 -15z m44 19 c-6 -2 -9 -10 -6
-15 4 -7 2 -8 -5 -4 -13 9 -5 26 12 25 9 0 8 -2 -1 -6z m1108 -14 c0 -6 -4 -7
-10 -4 -5 3 -10 11 -10 16 0 6 5 7 10 4 6 -3 10 -11 10 -16z m406 6 c-8 -8
-17 -15 -20 -15 -3 0 -3 7 0 15 4 8 13 15 21 15 12 0 12 -2 -1 -15z m419 5
c-3 -5 -1 -10 4 -10 6 0 11 -5 11 -11 0 -8 -5 -8 -15 1 -13 11 -12 30 1 30 3
0 2 -4 -1 -10z m1915 4 c0 -8 -19 -13 -24 -6 -3 5 1 9 9 9 8 0 15 -2 15 -3z
m443 -9 c-3 -9 -8 -14 -10 -11 -3 3 -2 9 2 15 9 16 15 13 8 -4z m327 5 c0 -5
-2 -10 -4 -10 -3 0 -8 5 -11 10 -3 6 -1 10 4 10 6 0 11 -4 11 -10z m-8852 -25
c-3 -3 -9 2 -12 12 -6 14 -5 15 5 6 7 -7 10 -15 7 -18z m462 21 c0 -2 -7 -7
-16 -10 -8 -3 -12 -2 -9 4 6 10 25 14 25 6z m2290 -6 c8 -5 11 -10 5 -10 -5 0
-17 5 -25 10 -8 5 -10 10 -5 10 6 0 17 -5 25 -10z m1524 2 c2 -4 -5 -9 -17 -9
-17 -2 -19 0 -7 7 18 12 18 12 24 2z m1691 -2 c-3 -5 -14 -10 -23 -9 -14 0
-13 2 3 9 27 11 27 11 20 0z m576 -7 c13 -16 12 -17 -3 -4 -17 13 -22 21 -14
21 2 0 10 -8 17 -17z m786 11 c-3 -3 -12 -4 -19 -1 -8 3 -5 6 6 6 11 1 17 -2
13 -5z m377 -3 c3 -5 -3 -11 -15 -14 -16 -4 -18 -3 -8 9 13 16 16 17 23 5z
m946 -6 c0 -8 -2 -15 -4 -15 -2 0 -6 7 -10 15 -3 8 -1 15 4 15 6 0 10 -7 10
-15z m-8136 -16 c-3 -5 -10 -7 -15 -3 -5 3 -7 10 -3 15 3 5 10 7 15 3 5 -3 7
-10 3 -15z m236 -13 c0 -6 -5 -3 -11 7 -6 9 -15 14 -21 11 -7 -4 -8 -2 -4 5 9
14 36 -3 36 -23z m320 24 c0 -5 -4 -10 -9 -10 -6 0 -13 5 -16 10 -3 6 1 10 9
10 9 0 16 -4 16 -10z m455 0 c3 -6 -1 -7 -9 -4 -18 7 -21 14 -7 14 6 0 13 -4
16 -10z m275 6 c0 -2 -7 -6 -15 -10 -8 -3 -15 -1 -15 4 0 6 7 10 15 10 8 0 15
-2 15 -4z m690 0 c0 -11 -19 -15 -25 -6 -3 5 1 10 9 10 9 0 16 -2 16 -4z m550
-6 c0 -5 -5 -10 -11 -10 -5 0 -7 5 -4 10 3 6 8 10 11 10 2 0 4 -4 4 -10z m37
-12 c-3 -8 -6 -5 -6 6 -1 11 2 17 5 13 3 -3 4 -12 1 -19z m2017 14 c3 -5 -1
-9 -9 -9 -8 0 -12 4 -9 9 3 4 7 8 9 8 2 0 6 -4 9 -8z m1336 4 c0 -2 -8 -10
-17 -17 -16 -13 -17 -12 -4 4 13 16 21 21 21 13z m1507 -2 c-3 -3 -12 -4 -19
-1 -8 3 -5 6 6 6 11 1 17 -2 13 -5z m763 2 c0 -2 -8 -10 -17 -17 -16 -13 -17
-12 -4 4 13 16 21 21 21 13z m-7090 -10 c0 -2 -8 -10 -17 -17 -16 -13 -17 -12
-4 4 13 16 21 21 21 13z m1685 -6 c3 -5 1 -10 -4 -10 -6 0 -11 5 -11 10 0 6 2
10 4 10 3 0 8 -4 11 -10z m1405 0 c0 -5 -2 -10 -4 -10 -3 0 -8 5 -11 10 -3 6
-1 10 4 10 6 0 11 -4 11 -10z m247 4 c-3 -3 -12 -4 -19 -1 -8 3 -5 6 6 6 11 1
17 -2 13 -5z m1696 -15 c-8 -8 -13 -7 -18 2 -5 8 -4 10 3 5 7 -4 12 -2 12 5 0
7 3 9 7 6 4 -4 2 -12 -4 -18z m2308 4 c13 -16 12 -17 -3 -4 -17 13 -22 21 -14
21 2 0 10 -8 17 -17z m-7592 4 c-2 -1 -13 -9 -24 -17 -19 -14 -19 -14 -6 3 7
9 18 17 24 17 6 0 8 -1 6 -3z m64 -12 c-3 -9 -8 -14 -10 -11 -3 3 -2 9 2 15 9
16 15 13 8 -4z m912 5 c3 -5 1 -10 -4 -10 -6 0 -11 5 -11 10 0 6 2 10 4 10 3
0 8 -4 11 -10z m2175 -4 c0 -2 -8 -10 -17 -17 -16 -13 -17 -12 -4 4 13 16 21
21 21 13z m1593 -11 c-3 -9 -8 -14 -10 -11 -3 3 -2 9 2 15 9 16 15 13 8 -4z
m-3903 -1 c0 -8 -19 -13 -24 -6 -3 5 1 9 9 9 8 0 15 -2 15 -3z m2767 -20 c-3
-3 -12 -4 -19 -1 -8 3 -5 6 6 6 11 1 17 -2 13 -5z"/>
<path d="M7975 250 c3 -5 8 -10 11 -10 2 0 4 5 4 10 0 6 -5 10 -11 10 -5 0 -7
-4 -4 -10z"/>
<path d="M9040 301 c0 -6 4 -12 8 -15 5 -3 9 1 9 9 0 8 -4 15 -9 15 -4 0 -8
-4 -8 -9z"/>
<path d="M9070 299 c0 -5 5 -7 10 -4 6 3 10 8 10 11 0 2 -4 4 -10 4 -5 0 -10
-5 -10 -11z"/>
<path d="M7805 290 c-4 -6 -11 -8 -16 -5 -5 4 -9 1 -9 -4 0 -15 27 -14 33 2 3
8 12 5 30 -11 27 -26 46 -15 27 15 -11 17 -11 17 -6 1 7 -22 -7 -23 -24 -3
-15 17 -26 19 -35 5z"/>
<path d="M8766 285 c-3 -8 -1 -15 4 -15 6 0 10 7 10 15 0 8 -2 15 -4 15 -2 0
-6 -7 -10 -15z"/>
<path d="M896 273 c-6 -14 -5 -15 5 -6 7 7 10 15 7 18 -3 3 -9 -2 -12 -12z"/>
<path d="M1848 283 c7 -3 16 -2 19 1 4 3 -2 6 -13 5 -11 0 -14 -3 -6 -6z"/>
<path d="M2385 281 c-3 -5 -2 -12 3 -15 5 -3 9 1 9 9 0 17 -3 19 -12 6z"/>
<path d="M2685 281 c-3 -5 -1 -12 5 -16 5 -3 10 1 10 9 0 18 -6 21 -15 7z"/>
<path d="M4046 278 c3 -4 9 -8 15 -8 5 0 9 4 9 8 0 5 -7 9 -15 9 -8 0 -12 -4
-9 -9z"/>
<path d="M4192 285 c4 -4 3 -14 -3 -22 -7 -8 -8 -13 -1 -13 15 0 23 28 9 36
-7 4 -9 4 -5 -1z"/>
<path d="M4568 267 c4 -14 7 -16 13 -5 12 19 11 25 -5 25 -8 0 -11 -8 -8 -20z"/>
<path d="M4903 275 c-3 -9 -3 -18 -1 -21 3 -3 8 4 11 16 6 23 -1 27 -10 5z"/>
<path d="M5437 260 c14 -16 29 -30 31 -30 3 0 2 3 -1 7 -4 3 -2 12 4 20 9 10
15 10 25 2 17 -14 18 -2 2 14 -12 11 -21 13 -45 8 -5 -1 -1 -6 7 -11 10 -7 11
-10 2 -10 -7 0 -15 7 -18 15 -4 8 -12 15 -20 15 -9 0 -5 -10 13 -30z"/>
<path d="M5630 279 c0 -5 -3 -8 -7 -6 -5 3 -9 -8 -10 -24 -3 -34 7 -37 25 -8
9 14 10 19 2 14 -9 -5 -10 -1 -5 14 3 11 4 21 1 21 -3 0 -6 -5 -6 -11z"/>
<path d="M6496 273 c-6 -14 -5 -15 5 -6 7 7 10 15 7 18 -3 3 -9 -2 -12 -12z"/>
<path d="M7242 270 c0 -14 2 -19 5 -12 2 6 2 18 0 25 -3 6 -5 1 -5 -13z"/>
<path d="M7310 275 c-7 -8 -17 -12 -23 -8 -6 3 -7 1 -3 -5 10 -17 19 -15 34 8
14 23 10 26 -8 5z"/>
<path d="M7338 269 c-10 -11 -13 -21 -8 -24 6 -4 10 -1 10 5 0 6 4 9 9 6 5 -3
11 1 15 9 8 22 -7 24 -26 4z"/>
<path d="M9486 282 c-2 -4 -1 -14 4 -22 7 -11 9 -9 7 8 -1 24 -3 26 -11 14z"/>
<path d="M9567 279 c7 -7 15 -10 18 -7 3 3 -2 9 -12 12 -14 6 -15 5 -6 -5z"/>
<path d="M9603 275 c0 -8 4 -12 9 -9 5 3 6 10 3 15 -9 13 -12 11 -12 -6z"/>
<path d="M720 269 c0 -5 5 -7 10 -4 6 3 10 8 10 11 0 2 -4 4 -10 4 -5 0 -10
-5 -10 -11z"/>
<path d="M1750 276 c0 -2 14 -9 31 -15 27 -9 30 -9 19 4 -11 13 -50 22 -50 11z"/>
<path d="M6700 270 c0 -5 5 -10 10 -10 6 0 10 5 10 10 0 6 -4 10 -10 10 -5 0
-10 -4 -10 -10z"/>
<path d="M7051 264 c0 -11 3 -14 6 -6 3 7 2 16 -1 19 -3 4 -6 -2 -5 -13z"/>
<path d="M8925 270 c-3 -6 1 -7 9 -4 18 7 21 14 7 14 -6 0 -13 -4 -16 -10z"/>
<path d="M9645 269 c-3 -4 2 -6 10 -5 21 3 28 13 10 13 -9 0 -18 -4 -20 -8z"/>
<path d="M10170 276 c0 -2 7 -7 16 -10 8 -3 12 -2 9 4 -6 10 -25 14 -25 6z"/>
<path d="M135 260 c7 -11 45 -20 45 -10 0 4 -11 10 -25 12 -13 3 -22 2 -20 -2z"/>
<path d="M2071 267 c2 -2 12 -9 22 -16 14 -11 17 -11 17 1 0 7 -10 14 -21 15
-12 1 -20 1 -18 0z"/>
<path d="M2620 260 c-23 -7 -22 -8 12 -15 20 -4 43 -5 50 -2 7 3 3 6 -9 6 -12
1 -23 5 -25 9 -1 5 -14 5 -28 2z"/>
<path d="M3923 245 c0 -14 3 -22 8 -19 5 3 9 11 9 19 0 8 -4 16 -9 19 -5 3 -8
-5 -8 -19z"/>
<path d="M5540 260 c0 -5 6 -10 14 -10 8 0 23 -3 33 -7 17 -6 17 -6 1 10 -18
19 -48 23 -48 7z"/>
<path d="M5906 254 c-5 -14 -4 -15 9 -4 17 14 19 20 6 20 -5 0 -12 -7 -15 -16z"/>
<path d="M6670 259 c0 -5 5 -7 10 -4 6 3 10 8 10 11 0 2 -4 4 -10 4 -5 0 -10
-5 -10 -11z"/>
<path d="M6954 254 c-18 -14 -18 -15 4 -4 12 6 22 13 22 15 0 8 -5 6 -26 -11z"/>
<path d="M7010 259 c0 -5 -4 -8 -9 -4 -5 3 -12 1 -15 -4 -4 -5 2 -8 11 -7 15
3 33 26 19 26 -3 0 -6 -5 -6 -11z"/>
<path d="M8506 261 c-3 -5 6 -8 19 -8 14 0 25 3 25 8 0 5 -9 9 -19 9 -11 0
-22 -4 -25 -9z"/>
<path d="M9550 261 c0 -5 -8 -7 -18 -4 -12 3 -19 -1 -19 -9 0 -20 41 -15 45 5
2 9 1 17 -2 17 -3 0 -6 -4 -6 -9z"/>
<path d="M415 250 c-3 -5 -1 -10 4 -10 6 0 11 5 11 10 0 6 -2 10 -4 10 -3 0
-8 -4 -11 -10z"/>
<path d="M2325 231 c-6 -5 -19 -11 -30 -14 -11 -3 -4 -5 17 -6 29 -1 36 2 32
14 -7 18 -7 18 -19 6z"/>
<path d="M2640 219 c0 -5 5 -7 10 -4 6 3 10 8 10 11 0 2 -4 4 -10 4 -5 0 -10
-5 -10 -11z"/>
</g>
</svg>
